<svg width="316" height="127" viewBox="0 0 316 127" fill="none" xmlns="http://www.w3.org/2000/svg">
<path d="M134.695 118.75C158.242 118.75 175.945 106.449 175.945 81.5508V11.1992H160.945V88.8984C160.945 109.602 147.742 116.648 134.695 116.648C121.492 116.648 107.992 109.602 107.992 88.8984V11.1992H92.8435V81.5508C92.8435 106.449 110.992 118.75 134.695 118.75Z" fill="#098C8C"/>
<path d="M208.644 116.5V11.1992H193.644V116.5H208.644Z" fill="#098C8C"/>
<path d="M13.043 51.6445H301.688V79.3945H13.043V51.6445Z" fill="white"/>
<path d="M53.8553 71.3476C57.7107 71.3476 59.8865 69.414 59.8865 66.2305V62.6133C59.8865 61.5273 59.9959 60.5508 60.1717 59.9258H57.1014C57.2771 60.5508 57.3904 61.5742 57.3904 62.6445V65.8633C57.3904 67.8945 55.949 69.1719 53.8553 69.1719C51.7576 69.1719 50.3357 67.8945 50.3357 65.8633V62.6445C50.3357 61.5742 50.4451 60.5508 50.6053 59.9258H47.5506C47.7264 60.5508 47.8396 61.5273 47.8396 62.6133V66.2305C47.8396 69.4922 50.1092 71.3476 53.8553 71.3476Z" fill="#098C8C"/>
<path d="M64.5406 71.125H67.6109C67.4664 70.5664 67.3219 69.3828 67.3219 68.2617V63.0156H67.5133L75.2906 71.125H77.5758V62.6133C77.5758 61.5273 77.6891 60.5508 77.8648 59.9258H74.7945C74.9391 60.4375 75.0836 61.4609 75.0836 62.5664V67.7812H74.8727L67.4351 59.9258H64.5406C64.732 60.5508 64.8453 61.5273 64.8453 62.6133V68.4375C64.8453 69.5234 64.7164 70.5 64.5406 71.125Z" fill="#098C8C"/>
<path d="M82.3288 71.125H85.3991C85.2233 70.5 85.11 69.5234 85.11 68.4375V62.6133C85.11 61.5273 85.2233 60.5508 85.3991 59.9258H82.3288C82.5046 60.5508 82.614 61.5273 82.614 62.6133V68.4375C82.614 69.5234 82.5202 70.5 82.3288 71.125Z" fill="#098C8C"/>
<path d="M89.8794 71.125H92.9497C92.7583 70.5 92.6607 69.7031 92.6607 68.6289V66.8203H97.8912C98.6607 66.8203 99.188 66.8555 99.5747 66.918V64.6445C99.188 64.7109 98.6607 64.7422 97.8912 64.7422H92.6607V62.1015H98.981C100.067 62.1015 100.868 62.1992 101.254 62.3906L100.836 59.9258H89.8794C90.0552 60.5508 90.1646 61.5273 90.1646 62.6133V68.4375C90.1646 69.5234 90.0708 70.5 89.8794 71.125Z" fill="#098C8C"/>
<path d="M104.868 71.125H107.939C107.763 70.5 107.65 69.5234 107.65 68.4375V62.6133C107.65 61.5273 107.763 60.5508 107.939 59.9258H104.868C105.044 60.5508 105.153 61.5273 105.153 62.6133V68.4375C105.153 69.5234 105.06 70.5 104.868 71.125Z" fill="#098C8C"/>
<path d="M112.419 71.125H123.696L124.161 68.582C123.696 68.8359 122.978 68.9961 121.712 68.9961H115.2V66.5508H120.353C121.122 66.5508 121.649 66.582 122.032 66.6445V64.375C121.649 64.4375 121.122 64.4687 120.353 64.4687H115.2V62.0547H121.599C122.704 62.0547 123.407 62.168 123.774 62.3437L123.376 59.9258H112.419C112.595 60.5508 112.724 61.5273 112.724 62.6133V68.4375C112.724 69.5234 112.61 70.5 112.419 71.125Z" fill="#098C8C"/>
<path d="M128.016 71.125H134.477C138.414 71.125 140.988 69.0117 140.988 65.5273C140.988 62.039 138.414 59.9258 134.477 59.9258H128.016C128.191 60.5508 128.32 61.5273 128.32 62.6133V68.4375C128.32 69.5234 128.207 70.5 128.016 71.125ZM130.797 68.9336V62.1015H134.301C136.719 62.1015 138.43 63.3828 138.43 65.5273C138.43 67.668 136.719 68.9336 134.301 68.9336H130.797Z" fill="#098C8C"/>
<path d="M151.243 71.125H154.313C154.137 70.5 154.024 69.5234 154.024 68.4375V62.6133C154.024 61.5273 154.137 60.5508 154.313 59.9258H151.243C151.419 60.5508 151.528 61.5273 151.528 62.6133V68.4375C151.528 69.5234 151.434 70.5 151.243 71.125Z" fill="#098C8C"/>
<path d="M158.794 71.125H161.864C161.719 70.5664 161.575 69.3828 161.575 68.2617V63.0156H161.766L169.544 71.125H171.829V62.6133C171.829 61.5273 171.942 60.5508 172.118 59.9258H169.047C169.192 60.4375 169.337 61.4609 169.337 62.5664V67.7812H169.126L161.688 59.9258H158.794C158.985 60.5508 159.098 61.5273 159.098 62.6133V68.4375C159.098 69.5234 158.969 70.5 158.794 71.125Z" fill="#098C8C"/>
<path d="M176.582 71.125H179.652C179.461 70.5 179.363 69.7031 179.363 68.6289V66.8203H184.593C185.363 66.8203 185.89 66.8555 186.277 66.918V64.6445C185.89 64.7109 185.363 64.7422 184.593 64.7422H179.363V62.1015H185.683C186.769 62.1015 187.57 62.1992 187.957 62.3906L187.539 59.9258H176.582C176.758 60.5508 176.867 61.5273 176.867 62.6133V68.4375C176.867 69.5234 176.773 70.5 176.582 71.125Z" fill="#098C8C"/>
<path d="M197.922 71.3476C201.918 71.3476 204.848 69.1562 204.848 65.5273C204.848 61.8945 201.918 59.7031 197.922 59.7031C193.922 59.7031 190.992 61.8945 190.992 65.5273C190.992 69.1562 193.922 71.3476 197.922 71.3476ZM197.922 69.3672C195.41 69.3672 193.52 67.8945 193.52 65.5273C193.52 63.1406 195.41 61.6875 197.922 61.6875C200.434 61.6875 202.321 63.1406 202.321 65.5273C202.321 67.8945 200.434 69.3672 197.922 69.3672Z" fill="#098C8C"/>
<path d="M212.446 71.125H215.516C215.325 70.4844 215.227 69.5234 215.227 68.4375V62.1015H217.997C219.036 62.1015 219.645 62.1992 220.172 62.375L219.676 59.9258H208.27L207.774 62.375C208.317 62.1836 208.911 62.1015 209.95 62.1015H212.735V68.4375C212.735 69.5234 212.622 70.4844 212.446 71.125Z" fill="#098C8C"/>
<path d="M223.66 71.125H234.937L235.402 68.582C234.937 68.8359 234.218 68.9961 232.953 68.9961H226.441V66.5508H231.593C232.363 66.5508 232.89 66.582 233.273 66.6445V64.375C232.89 64.4375 232.363 64.4687 231.593 64.4687H226.441V62.0547H232.839C233.945 62.0547 234.648 62.168 235.015 62.3437L234.617 59.9258H223.66C223.836 60.5508 223.964 61.5273 223.964 62.6133V68.4375C223.964 69.5234 223.851 70.5 223.66 71.125Z" fill="#098C8C"/>
<path d="M246.053 71.3476C248.085 71.3476 249.815 70.9805 251.108 70.375V67.7969C250.022 68.6445 248.296 69.1719 246.503 69.1719C243.495 69.1719 241.19 67.8789 241.19 65.543C241.19 63.2539 243.432 61.8789 246.311 61.8789C248.022 61.8789 249.557 62.3906 250.452 63.0781L250.663 60.6797C249.542 60.1015 247.846 59.7031 246.007 59.7031C241.928 59.7031 238.678 61.7969 238.678 65.543C238.678 69.3008 241.991 71.3476 246.053 71.3476Z" fill="#098C8C"/>
<path d="M254.805 71.125H257.876C257.668 70.4531 257.586 69.5898 257.586 68.5351V66.5508H264.579V68.5351C264.579 69.6211 264.45 70.5 264.29 71.125H267.364C267.168 70.5 267.075 69.5234 267.075 68.4375V62.6133C267.075 61.5273 267.188 60.5508 267.364 59.9258H264.29C264.465 60.5508 264.579 61.4297 264.579 62.5195V64.4687H257.586V62.5195C257.586 61.4453 257.7 60.582 257.876 59.9258H254.805C254.981 60.5508 255.11 61.5273 255.11 62.6133V68.4375C255.11 69.5234 254.997 70.5 254.805 71.125Z" fill="#098C8C"/>
<path d="M13.7422 64.75H44.4922" stroke="#065757" stroke-width="1.49914"/>
<path d="M271.465 64.75H302.215" stroke="#065757" stroke-width="1.49914"/>
</svg>
