<svg width="308" height="123" viewBox="0 0 308 123" fill="none" xmlns="http://www.w3.org/2000/svg">
<path d="M130.695 114.75C154.242 114.75 171.945 102.449 171.945 77.5508V7.1992H156.945V84.8984C156.945 105.602 143.742 112.648 130.695 112.648C117.492 112.648 103.992 105.602 103.992 84.8984V7.1992H88.8435V77.5508C88.8435 102.449 106.992 114.75 130.695 114.75Z" fill="#098C8C"/>
<path d="M204.644 112.5V7.1992H189.644V112.5H204.644Z" fill="#098C8C"/>
<path d="M9.04297 47.6445H297.688V75.3945H9.04297V47.6445Z" fill="#DBF8FF"/>
<path d="M49.8553 67.3476C53.7107 67.3476 55.8865 65.414 55.8865 62.2305V58.6133C55.8865 57.5273 55.9959 56.5508 56.1717 55.9258H53.1013C53.2771 56.5508 53.3904 57.5742 53.3904 58.6445V61.8633C53.3904 63.8945 51.949 65.1719 49.8553 65.1719C47.7576 65.1719 46.3357 63.8945 46.3357 61.8633V58.6445C46.3357 57.5742 46.4451 56.5508 46.6053 55.9258H43.5506C43.7263 56.5508 43.8396 57.5273 43.8396 58.6133V62.2305C43.8396 65.4922 46.1092 67.3476 49.8553 67.3476Z" fill="#098C8C"/>
<path d="M60.5406 67.125H63.6109C63.4664 66.5664 63.3219 65.3828 63.3219 64.2617V59.0156H63.5133L71.2906 67.125H73.5758V58.6133C73.5758 57.5273 73.6891 56.5508 73.8648 55.9258H70.7945C70.9391 56.4375 71.0836 57.4609 71.0836 58.5664V63.7812H70.8727L63.4351 55.9258H60.5406C60.732 56.5508 60.8453 57.5273 60.8453 58.6133V64.4375C60.8453 65.5234 60.7164 66.5 60.5406 67.125Z" fill="#098C8C"/>
<path d="M78.3288 67.125H81.3991C81.2233 66.5 81.11 65.5234 81.11 64.4375V58.6133C81.11 57.5273 81.2233 56.5508 81.3991 55.9258H78.3288C78.5046 56.5508 78.614 57.5273 78.614 58.6133V64.4375C78.614 65.5234 78.5202 66.5 78.3288 67.125Z" fill="#098C8C"/>
<path d="M85.8794 67.125H88.9497C88.7583 66.5 88.6607 65.7031 88.6607 64.6289V62.8203H93.8912C94.6607 62.8203 95.188 62.8555 95.5747 62.918V60.6445C95.188 60.7109 94.6607 60.7422 93.8912 60.7422H88.6607V58.1015H94.981C96.0669 58.1015 96.8677 58.1992 97.2544 58.3906L96.8365 55.9258H85.8794C86.0552 56.5508 86.1646 57.5273 86.1646 58.6133V64.4375C86.1646 65.5234 86.0708 66.5 85.8794 67.125Z" fill="#098C8C"/>
<path d="M100.868 67.125H103.939C103.763 66.5 103.65 65.5234 103.65 64.4375V58.6133C103.65 57.5273 103.763 56.5508 103.939 55.9258H100.868C101.044 56.5508 101.153 57.5273 101.153 58.6133V64.4375C101.153 65.5234 101.06 66.5 100.868 67.125Z" fill="#098C8C"/>
<path d="M108.419 67.125H119.696L120.161 64.582C119.696 64.8359 118.978 64.9961 117.712 64.9961H111.2V62.5508H116.353C117.122 62.5508 117.649 62.582 118.032 62.6445V60.375C117.649 60.4375 117.122 60.4687 116.353 60.4687H111.2V58.0547H117.599C118.704 58.0547 119.407 58.168 119.774 58.3437L119.376 55.9258H108.419C108.595 56.5508 108.724 57.5273 108.724 58.6133V64.4375C108.724 65.5234 108.61 66.5 108.419 67.125Z" fill="#098C8C"/>
<path d="M124.016 67.125H130.477C134.414 67.125 136.988 65.0117 136.988 61.5273C136.988 58.039 134.414 55.9258 130.477 55.9258H124.016C124.191 56.5508 124.32 57.5273 124.32 58.6133V64.4375C124.32 65.5234 124.207 66.5 124.016 67.125ZM126.797 64.9336V58.1015H130.301C132.719 58.1015 134.43 59.3828 134.43 61.5273C134.43 63.668 132.719 64.9336 130.301 64.9336H126.797Z" fill="#098C8C"/>
<path d="M147.243 67.125H150.313C150.137 66.5 150.024 65.5234 150.024 64.4375V58.6133C150.024 57.5273 150.137 56.5508 150.313 55.9258H147.243C147.419 56.5508 147.528 57.5273 147.528 58.6133V64.4375C147.528 65.5234 147.434 66.5 147.243 67.125Z" fill="#098C8C"/>
<path d="M154.794 67.125H157.864C157.719 66.5664 157.575 65.3828 157.575 64.2617V59.0156H157.766L165.544 67.125H167.829V58.6133C167.829 57.5273 167.942 56.5508 168.118 55.9258H165.047C165.192 56.4375 165.337 57.4609 165.337 58.5664V63.7812H165.126L157.688 55.9258H154.794C154.985 56.5508 155.098 57.5273 155.098 58.6133V64.4375C155.098 65.5234 154.969 66.5 154.794 67.125Z" fill="#098C8C"/>
<path d="M172.582 67.125H175.652C175.461 66.5 175.363 65.7031 175.363 64.6289V62.8203H180.593C181.363 62.8203 181.89 62.8555 182.277 62.918V60.6445C181.89 60.7109 181.363 60.7422 180.593 60.7422H175.363V58.1015H181.683C182.769 58.1015 183.57 58.1992 183.957 58.3906L183.539 55.9258H172.582C172.758 56.5508 172.867 57.5273 172.867 58.6133V64.4375C172.867 65.5234 172.773 66.5 172.582 67.125Z" fill="#098C8C"/>
<path d="M193.922 67.3476C197.918 67.3476 200.848 65.1562 200.848 61.5273C200.848 57.8945 197.918 55.7031 193.922 55.7031C189.922 55.7031 186.992 57.8945 186.992 61.5273C186.992 65.1562 189.922 67.3476 193.922 67.3476ZM193.922 65.3672C191.41 65.3672 189.52 63.8945 189.52 61.5273C189.52 59.1406 191.41 57.6875 193.922 57.6875C196.434 57.6875 198.321 59.1406 198.321 61.5273C198.321 63.8945 196.434 65.3672 193.922 65.3672Z" fill="#098C8C"/>
<path d="M208.446 67.125H211.516C211.325 66.4844 211.227 65.5234 211.227 64.4375V58.1015H213.997C215.036 58.1015 215.645 58.1992 216.172 58.375L215.676 55.9258H204.27L203.774 58.375C204.317 58.1836 204.911 58.1015 205.95 58.1015H208.735V64.4375C208.735 65.5234 208.622 66.4844 208.446 67.125Z" fill="#098C8C"/>
<path d="M219.66 67.125H230.937L231.402 64.582C230.937 64.8359 230.218 64.9961 228.953 64.9961H222.441V62.5508H227.593C228.363 62.5508 228.89 62.582 229.273 62.6445V60.375C228.89 60.4375 228.363 60.4687 227.593 60.4687H222.441V58.0547H228.839C229.945 58.0547 230.648 58.168 231.015 58.3437L230.617 55.9258H219.66C219.836 56.5508 219.964 57.5273 219.964 58.6133V64.4375C219.964 65.5234 219.851 66.5 219.66 67.125Z" fill="#098C8C"/>
<path d="M242.053 67.3476C244.085 67.3476 245.815 66.9805 247.108 66.375V63.7969C246.022 64.6445 244.296 65.1719 242.503 65.1719C239.495 65.1719 237.19 63.8789 237.19 61.543C237.19 59.2539 239.432 57.8789 242.311 57.8789C244.022 57.8789 245.557 58.3906 246.452 59.0781L246.663 56.6797C245.542 56.1015 243.846 55.7031 242.007 55.7031C237.928 55.7031 234.678 57.7969 234.678 61.543C234.678 65.3008 237.991 67.3476 242.053 67.3476Z" fill="#098C8C"/>
<path d="M250.805 67.125H253.876C253.668 66.4531 253.586 65.5898 253.586 64.5351V62.5508H260.579V64.5351C260.579 65.6211 260.45 66.5 260.29 67.125H263.364C263.168 66.5 263.075 65.5234 263.075 64.4375V58.6133C263.075 57.5273 263.188 56.5508 263.364 55.9258H260.29C260.465 56.5508 260.579 57.4297 260.579 58.5195V60.4687H253.586V58.5195C253.586 57.4453 253.7 56.582 253.876 55.9258H250.805C250.981 56.5508 251.11 57.5273 251.11 58.6133V64.4375C251.11 65.5234 250.997 66.5 250.805 67.125Z" fill="#098C8C"/>
<path d="M9.74219 60.75H40.4922" stroke="#065757" stroke-width="1.49914"/>
<path d="M267.465 60.75H298.215" stroke="#065757" stroke-width="1.49914"/>
</svg>
